<?xml version="1.0" standalone="no"?>
<!DOCTYPE svg PUBLIC "-//W3C//DTD SVG 20010904//EN"
 "http://www.w3.org/TR/2001/REC-SVG-20010904/DTD/svg10.dtd">
<svg version="1.0" xmlns="http://www.w3.org/2000/svg"
 width="656.000000pt" height="656.000000pt" viewBox="0 0 656.000000 656.000000"
 preserveAspectRatio="xMidYMid meet">
<metadata>
Created by potrace 1.14, written by Peter Selinger 2001-2017
</metadata>
<g transform="translate(0.000000,656.000000) scale(0.100000,-0.100000)"
fill="#000000" stroke="none">
<path d="M1327 6493 c-1 -1 -27 -4 -57 -7 -61 -6 -195 -38 -225 -53 -11 -6
-42 -21 -70 -34 -54 -26 -127 -72 -164 -104 -46 -39 -132 -130 -149 -157 -9
-16 -20 -28 -25 -28 -4 0 -6 -4 -3 -9 3 -5 -1 -14 -9 -21 -8 -7 -26 -37 -40
-69 -14 -31 -30 -63 -34 -72 -5 -8 -19 -55 -32 -105 l-24 -89 0 -1455 c0
-1235 3 -1515 15 -1515 1 0 3 -9 5 -19 2 -11 11 -51 20 -88 20 -78 16 -98 -19
-98 -14 0 -29 -8 -34 -17 -9 -19 -8 -122 1 -146 3 -8 3 -18 0 -21 -11 -11 -8
-98 3 -107 10 -8 123 -43 169 -53 6 -1 19 -5 30 -9 11 -3 31 -9 45 -11 14 -3
52 -12 85 -21 33 -8 74 -17 90 -20 17 -2 41 -7 55 -11 14 -3 34 -7 45 -9 11
-1 38 -8 60 -14 22 -6 44 -10 48 -10 4 0 18 -6 30 -14 26 -17 659 -382 732
-422 28 -15 55 -31 60 -35 6 -4 66 -40 135 -79 69 -39 132 -75 140 -81 22 -14
119 -70 170 -98 25 -14 113 -64 195 -112 83 -48 168 -98 190 -110 22 -13 54
-31 70 -41 17 -10 41 -24 55 -30 13 -5 27 -13 30 -17 3 -4 16 -13 30 -20 14
-6 32 -16 40 -22 8 -5 69 -41 135 -79 66 -38 140 -80 165 -95 214 -124 274
-145 393 -141 146 6 289 98 361 231 12 21 40 71 63 109 22 39 50 86 61 105 11
19 79 138 151 263 143 248 167 289 188 327 8 14 23 39 33 55 10 17 25 41 33
55 7 14 26 48 42 75 16 28 33 59 39 70 6 11 13 22 16 25 3 3 10 14 16 25 9 16
22 19 90 20 43 0 85 -4 92 -8 6 -5 12 -6 12 -1 0 5 98 9 218 8 321 -1 439 25
612 135 64 41 63 40 138 111 94 88 157 182 207 305 l29 70 1 1575 1 1575 -23
64 c-21 58 -37 91 -84 171 -8 13 -18 29 -24 36 -5 6 -21 26 -35 44 -124 164
-351 288 -580 316 -38 5 -4009 12 -4013 7z"/>
</g>
</svg>
